<?xml version="1.0" encoding="utf-8" ?>
<svg baseProfile="tiny" height="294" version="1.2" width="302" xmlns="http://www.w3.org/2000/svg" xmlns:ev="http://www.w3.org/2001/xml-events" xmlns:xlink="http://www.w3.org/1999/xlink"><defs /><path d="M 11.308297427543984,286.9904035256657 C 10.102861012693175,286.50485039524284 8.333384386804056,284.91224939057446 7.3761271477903865,283.45129018195826 C 5.776237313917159,281.0095496650863 5.73099177431677,279.5311494404981 6.815950793891376,265.14750035587343 C 8.466950463624423,243.25966914766587 11.11780610533133,231.75951001398195 18.10247228191505,216.18338811382085 C 24.483936847212902,201.9524331250378 39.210717153602936,184.2813672769648 56.0,170.70910970044164 C 63.16321045041127,164.9184551384043 83.25709165632074,151.34911307498635 93.17063808121102,145.60788123836 L 97.84127616242206,142.90297474981193 L 105.67063808121102,150.7881707341619 C 114.30601943364873,159.48513417382168 121.30977583857229,164.51482954930125 133.75,170.95315486897076 C 138.2875,173.30149688909137 141.9976070018243,175.51022241544047 141.9946822262762,175.8614338164132 C 141.99175745072816,176.21264521738595 137.37925745072815,178.94649283476562 131.7446822262762,181.93665074392362 C 118.32737932196895,189.05694869021386 103.61026865082349,197.85845132737634 92.75123469912626,205.25650875893137 C 76.68794619812735,216.2001278136866 69.06164524453398,227.4251013341333 72.34724869179763,235.2886572457955 C 73.14402470116765,237.19561065612575 74.4043475675282,239.14828008004778 75.14796617259884,239.62792263228891 C 75.89158477766948,240.10756518453002 91.05205746548737,240.725 108.83790547886083,241.0 L 141.17581095772167,241.5 L 143.58790547886082,244.30576370132675 C 145.9437681595416,247.046118167885 145.99925858538404,247.5240234569584 145.96819662812965,264.8057637013268 C 145.9349604727908,283.2971484708904 145.67815116139582,284.5132243648318 141.3157414540893,286.8366571843553 C 138.66697098645557,288.2474004773517 14.792608923350667,288.3938938577267 11.308297427543984,286.9904035256657 Z" fill="#003366" stroke="none" /><path d="M 157.05577686082026,285.0557768608203 C 154.28203688506676,282.28203688506676 153.80771466327107,278.3572111251763 154.1749708020876,261.2182644926297 C 154.6374466027258,239.63564890579585 150.8926890210396,241.6227953757592 192.27608734872422,241.0 C 216.1083214625556,240.64133914081737 226.11338766010613,240.14882220693846 227.66991435125095,239.25767678001046 C 228.86336724443896,238.57439900901622 230.32528631020523,236.54440256066476 230.9186233862871,234.74657356145164 C 232.95252389478148,228.58379448849675 229.4050547113318,221.36790705407938 220.11136550804292,212.76359011850724 C 210.02914735264238,203.42923445789975 195.25175536016678,194.41886016354198 150.19450368267638,170.13244824623223 C 124.254589098401,156.1505157661323 117.1289560786284,151.33112449053974 109.13482711311251,142.36191242311125 C 98.40835979220516,130.3270852955318 93.68927885995207,116.26554524280913 93.57567668731477,96.0 C 93.49668168745875,81.90804465818375 95.58895540610288,70.41595243185041 98.70428003949418,67.83046262526197 C 100.74149837859827,66.13972157275893 114.6370689352091,65.57526098810078 121.11511510456208,66.92009820287507 C 135.8115291856891,69.97106203723847 146.05088181311544,80.7785632133463 147.24514602742286,94.5 C 148.5361771142861,109.33323475305826 152.63066404705373,114.57091047198223 169.80133879469972,123.35392604945442 C 199.4652355274657,138.52738142738755 227.05121102451804,155.1352918788192 244.3625356501634,168.2428835075448 C 254.736808814579,176.09795751398798 269.19467137342014,190.5700673947061 275.3068465889312,199.21768813487904 C 288.8446291521842,218.37119816071166 295.8375710549572,242.00552514684145 296.29034376299745,270.1364574339285 C 296.49318523793653,282.7390717152143 296.42326400007767,283.2248436764414 294.13921603769074,285.0812376748271 C 291.8646237122787,286.92994646343595 289.3545782649653,287.0 225.38921603769074,287.0 C 160.96820251548948,287.0 158.94236074619357,286.9423607461936 157.05577686082026,285.0557768608203 Z" fill="#FF4422" stroke="none" /><path d="M 197.5,128.6304032952995 C 195.3,127.37356363478732 187.65,123.28712354288896 180.5,119.54942531330316 C 162.7405180814201,110.2655673936616 161.6358958623258,109.53964272540205 158.74754367138138,105.25436192309738 C 156.9113309266628,102.53007945901298 156.080013087645,99.71660334812353 155.71761426788595,95.0 C 154.66173774021203,81.25781737108449 147.05447930001495,69.44561376636011 135.3026308815534,63.30054582184302 C 127.64400950880395,59.29583549704483 121.23314965106096,57.8323850940874 111.44552076084787,57.85452170116634 C 90.54417548616803,57.90179411749483 76.43503601549526,66.64020398400672 62.29973431870242,88.29266614195214 C 55.06085682711726,99.38118227798292 53.01098335822036,100.86950572975825 47.91840550914242,98.73431986337846 C 43.288178614267835,96.79298576558794 18.81155728245916,81.21678778403876 17.250000000000014,79.21785353769147 C 10.67222494594126,70.79770784849805 31.164438005925085,40.60970500510797 53.209582417782116,26.244171627516003 C 62.57066057401069,20.144103594792206 73.169420241137,15.625935775213915 85.92622844344129,12.297322950858906 C 97.98284490875912,9.151409996117014 119.44139940981668,8.718082943045212 133.07106620144114,11.345295468662222 C 170.62359764019078,18.583805585808744 196.81895744984928,40.75893952342513 207.08471290966276,74.0 C 210.2213389118122,84.15656130111475 210.47945513628403,106.98351170698992 207.5709363190513,117.0 C 205.92871519240506,122.65555518916544 202.40251817600713,131.08145846521222 201.72967613459286,130.95778315720628 C 201.6033542605668,130.93456389366972 199.7,129.88724295581167 197.5,128.6304032952995 Z" fill="#003366" stroke="none" /><path d="M 246.70454545454544,96.64464104358456 C 245.49204545454546,95.34919361755605 242.475,90.98225099753952 240.0,86.94032411021449 C 234.224857352701,77.50892841556592 224.0498122728748,67.20317346973718 216.8606816757607,63.50375528990152 C 212.0380074113155,61.02207984830138 210.82850194020878,59.7980037421097 208.50846716482735,55.05092356582011 C 204.62093843873552,47.09655549073261 198.20139402452034,38.44730044002489 190.8658956392325,31.280529433594282 C 183.22393548659815,23.814345736513605 179.531855433511,21.007572127742243 171.13901014782857,16.28386067658012 C 163.5143136662721,11.992483336048668 163.93561834923105,11.541843879836764 177.0898946269038,9.918625600634655 C 202.62297463348895,6.7678812102825825 229.655443964154,12.731457726361182 249.59252474211422,25.91327917889749 C 264.5480927004481,35.80146836484714 277.08841428112044,49.92687143003641 284.51630939240147,65.25138798046845 C 287.2677032323067,70.92779829654167 287.6587239946433,72.57930347866136 286.97211192894827,75.6236520800366 C 285.97992117831166,80.02289682814684 287.0548173227078,79.08864290614723 272.5,88.20219503948971 C 253.2448860074321,100.25885513449069 250.82777195686936,101.04993849460968 246.70454545454544,96.64464104358456 Z" fill="#FF4422" stroke="none" /></svg>